solid OpenSCAD_Model
  facet normal 1 -0 0
    outer loop
      vertex -106.15 0 10
      vertex -106.15 88 3
      vertex -106.15 88 10
    endloop
  endfacet
  facet normal 1 0 0
    outer loop
      vertex -106.15 88 3
      vertex -106.15 0 10
      vertex -106.15 0 3
    endloop
  endfacet
  facet normal 1 0 0
    outer loop
      vertex -106.15 0 0.4
      vertex -106.15 0 0
      vertex -106.15 0.4 0
    endloop
  endfacet
  facet normal -0 0 1
    outer loop
      vertex -110.15 88 10
      vertex -106.15 0 10
      vertex -106.15 88 10
    endloop
  endfacet
  facet normal 0 0 1
    outer loop
      vertex -106.15 0 10
      vertex -110.15 88 10
      vertex -110.15 0 10
    endloop
  endfacet
  facet normal 0 0 -1
    outer loop
      vertex -111.65 -1.25 0
      vertex -110.14 0 0
      vertex -110.14 -1.25 0
    endloop
  endfacet
  facet normal 0 0 -1
    outer loop
      vertex -111.65 22.75 0
      vertex -110.14 0 0
      vertex -111.65 -1.25 0
    endloop
  endfacet
  facet normal 0 0 -1
    outer loop
      vertex -110.14 0 0
      vertex -111.65 22.75 0
      vertex -110.15 22.75 0
    endloop
  endfacet
  facet normal 0 0 -1
    outer loop
      vertex -106.15 0 0
      vertex -110.14 0 0
      vertex -106.15 0.4 0
    endloop
  endfacet
  facet normal 0 0 -1
    outer loop
      vertex 110.14 0 0
      vertex 111.65 22.75 0
      vertex 111.65 -1.25 0
    endloop
  endfacet
  facet normal -0 0 -1
    outer loop
      vertex 111.65 22.75 0
      vertex 110.14 0 0
      vertex 110.15 22.75 0
    endloop
  endfacet
  facet normal 0 0 -1
    outer loop
      vertex 110.14 0 0
      vertex 111.65 -1.25 0
      vertex 110.14 -1.25 0
    endloop
  endfacet
  facet normal 0 0 -1
    outer loop
      vertex 110.15 70 0
      vertex 111.65 88 0
      vertex 111.65 70 0
    endloop
  endfacet
  facet normal 0 0 -1
    outer loop
      vertex 106.15 0.4 0
      vertex 110.15 22.75 0
      vertex 110.14 0 0
    endloop
  endfacet
  facet normal 0 0 -1
    outer loop
      vertex 106.15 0.4 0
      vertex 110.14 0 0
      vertex 106.15 0 0
    endloop
  endfacet
  facet normal 0 0 -1
    outer loop
      vertex 75 17 0
      vertex 110.15 22.75 0
      vertex 106.15 0.4 0
    endloop
  endfacet
  facet normal 0 0 -1
    outer loop
      vertex 100.15 46 0
      vertex 110.15 22.75 0
      vertex 100.15 40 0
    endloop
  endfacet
  facet normal 0 0 -1
    outer loop
      vertex 110.15 22.75 0
      vertex 100.15 46 0
      vertex 110.15 70 0
    endloop
  endfacet
  facet normal 0 0 -1
    outer loop
      vertex 96.15 46 0
      vertex 110.15 70 0
      vertex 100.15 46 0
    endloop
  endfacet
  facet normal 0 0 -1
    outer loop
      vertex 75 84 0
      vertex 110.15 70 0
      vertex 96.15 46 0
    endloop
  endfacet
  facet normal 0 0 -1
    outer loop
      vertex 110.15 70 0
      vertex 94 88 0
      vertex 111.65 88 0
    endloop
  endfacet
  facet normal 0 0 -1
    outer loop
      vertex -110.15 70 0
      vertex -83 84 0
      vertex -96.15 46 0
    endloop
  endfacet
  facet normal 0 0 -1
    outer loop
      vertex -110.15 70 0
      vertex -96.15 46 0
      vertex -100.15 46 0
    endloop
  endfacet
  facet normal -0 0 -1
    outer loop
      vertex -96.15 40 0
      vertex -110.15 22.75 0
      vertex -100.15 40 0
    endloop
  endfacet
  facet normal -0 0 -1
    outer loop
      vertex -100.15 40 0
      vertex -110.15 22.75 0
      vertex -100.15 46 0
    endloop
  endfacet
  facet normal 0 0 -1
    outer loop
      vertex -110.15 70 0
      vertex -100.15 46 0
      vertex -110.15 22.75 0
    endloop
  endfacet
  facet normal -0 0 -1
    outer loop
      vertex -83 84 0
      vertex -110.15 70 0
      vertex -94 88 0
    endloop
  endfacet
  facet normal 0 0 -1
    outer loop
      vertex -111.65 88 0
      vertex -110.15 70 0
      vertex -111.65 70 0
    endloop
  endfacet
  facet normal 0 0 -1
    outer loop
      vertex -110.15 70 0
      vertex -111.65 88 0
      vertex -94 88 0
    endloop
  endfacet
  facet normal 0 0 -1
    outer loop
      vertex -49.5 84 0
      vertex -41.5 84 0
      vertex -49.5 17 0
    endloop
  endfacet
  facet normal 0 0 -1
    outer loop
      vertex -53 5 0
      vertex -49.5 17 0
      vertex -47 5 0
    endloop
  endfacet
  facet normal -0 0 -1
    outer loop
      vertex -49.5 17 0
      vertex -53 5 0
      vertex -83 17 0
    endloop
  endfacet
  facet normal 0 0 -1
    outer loop
      vertex -41.5 84 0
      vertex -49.5 84 0
      vertex -47 95.6 0
    endloop
  endfacet
  facet normal 0 0 -1
    outer loop
      vertex -49.5 84 0
      vertex -53 95.6 0
      vertex -47 95.6 0
    endloop
  endfacet
  facet normal -0 0 -1
    outer loop
      vertex -53 95.6 0
      vertex -83 84 0
      vertex -53 99.6 0
    endloop
  endfacet
  facet normal 0 0 -1
    outer loop
      vertex -83 84 0
      vertex -53 95.6 0
      vertex -49.5 84 0
    endloop
  endfacet
  facet normal 0 0 -1
    outer loop
      vertex 41.5 84 0
      vertex 53 95.6 0
      vertex 75 84 0
    endloop
  endfacet
  facet normal 0 0 -1
    outer loop
      vertex 33.5 84 0
      vertex 47 95.6 0
      vertex 41.5 84 0
    endloop
  endfacet
  facet normal -0 0 -1
    outer loop
      vertex 53 95.6 0
      vertex 41.5 84 0
      vertex 47 95.6 0
    endloop
  endfacet
  facet normal 0 0 -1
    outer loop
      vertex 110.15 22.75 0
      vertex 96.15 40 0
      vertex 100.15 40 0
    endloop
  endfacet
  facet normal 0 0 -1
    outer loop
      vertex 75 17 0
      vertex 96.15 46 0
      vertex 96.15 40 0
    endloop
  endfacet
  facet normal 0 0 -1
    outer loop
      vertex 110.15 70 0
      vertex 75 84 0
      vertex 94 88 0
    endloop
  endfacet
  facet normal -0 0 -1
    outer loop
      vertex 96.15 46 0
      vertex 75 17 0
      vertex 75 84 0
    endloop
  endfacet
  facet normal -0 0 -1
    outer loop
      vertex 110.15 22.75 0
      vertex 75 17 0
      vertex 96.15 40 0
    endloop
  endfacet
  facet normal 0 0 -1
    outer loop
      vertex 106.15 0.4 0
      vertex 53 1 0
      vertex 75 17 0
    endloop
  endfacet
  facet normal 0 0 -1
    outer loop
      vertex 106.15 0.4 0
      vertex 47 1 0
      vertex 53 1 0
    endloop
  endfacet
  facet normal 0 0 -1
    outer loop
      vertex 33.5 17 0
      vertex 47 5 0
      vertex 47 1 0
    endloop
  endfacet
  facet normal 0 0 -1
    outer loop
      vertex 41.5 17 0
      vertex 33.5 17 0
      vertex 41.5 84 0
    endloop
  endfacet
  facet normal 0 0 -1
    outer loop
      vertex 47 5 0
      vertex 33.5 17 0
      vertex 41.5 17 0
    endloop
  endfacet
  facet normal 0 0 -1
    outer loop
      vertex 47 1 0
      vertex 0 17 0
      vertex 33.5 17 0
    endloop
  endfacet
  facet normal 0 0 -1
    outer loop
      vertex 0 17 0
      vertex -8 17 0
      vertex 0 84 0
    endloop
  endfacet
  facet normal 0 0 -1
    outer loop
      vertex -47 1 0
      vertex 0 17 0
      vertex 47 1 0
    endloop
  endfacet
  facet normal -0 0 -1
    outer loop
      vertex 0 17 0
      vertex -47 1 0
      vertex -8 17 0
    endloop
  endfacet
  facet normal 0 0 -1
    outer loop
      vertex -47 5 0
      vertex -41.5 17 0
      vertex -47 1 0
    endloop
  endfacet
  facet normal -0 0 -1
    outer loop
      vertex -8 17 0
      vertex -47 1 0
      vertex -41.5 17 0
    endloop
  endfacet
  facet normal 0 0 -1
    outer loop
      vertex 106.15 0.4 0
      vertex -47 1 0
      vertex 47 1 0
    endloop
  endfacet
  facet normal 0 0 -1
    outer loop
      vertex 106.15 0.4 0
      vertex -53 1 0
      vertex -47 1 0
    endloop
  endfacet
  facet normal 0 0 -1
    outer loop
      vertex -53 1 0
      vertex -83 17 0
      vertex -53 5 0
    endloop
  endfacet
  facet normal 0 0 -1
    outer loop
      vertex -96.15 46 0
      vertex -83 17 0
      vertex -96.15 40 0
    endloop
  endfacet
  facet normal 0 0 -1
    outer loop
      vertex -83 17 0
      vertex -96.15 46 0
      vertex -83 84 0
    endloop
  endfacet
  facet normal 0 0 -1
    outer loop
      vertex -110.15 22.75 0
      vertex -96.15 40 0
      vertex -83 17 0
    endloop
  endfacet
  facet normal 0 0 -1
    outer loop
      vertex -110.15 22.75 0
      vertex -106.15 0.4 0
      vertex -110.14 0 0
    endloop
  endfacet
  facet normal 0 0 -1
    outer loop
      vertex -110.15 22.75 0
      vertex -83 17 0
      vertex -106.15 0.4 0
    endloop
  endfacet
  facet normal -0 0 -1
    outer loop
      vertex -53 1 0
      vertex -106.15 0.4 0
      vertex -83 17 0
    endloop
  endfacet
  facet normal 0 0 -1
    outer loop
      vertex -106.15 0.4 0
      vertex -53 1 0
      vertex 106.15 0.4 0
    endloop
  endfacet
  facet normal -0 0 -1
    outer loop
      vertex 94 88 0
      vertex 75 84 0
      vertex 94 100.6 0
    endloop
  endfacet
  facet normal 0 0 -1
    outer loop
      vertex 53 99.6 0
      vertex 75 84 0
      vertex 53 95.6 0
    endloop
  endfacet
  facet normal 0 0 -1
    outer loop
      vertex 75 84 0
      vertex 53 99.6 0
      vertex 94 100.6 0
    endloop
  endfacet
  facet normal 0 0 -1
    outer loop
      vertex 47 99.6 0
      vertex 94 100.6 0
      vertex 53 99.6 0
    endloop
  endfacet
  facet normal 0 0 -1
    outer loop
      vertex 33.5 84 0
      vertex 41.5 84 0
      vertex 33.5 17 0
    endloop
  endfacet
  facet normal -0 0 -1
    outer loop
      vertex 47 95.6 0
      vertex 33.5 84 0
      vertex 47 99.6 0
    endloop
  endfacet
  facet normal 0 0 -1
    outer loop
      vertex 0 84 0
      vertex 47 99.6 0
      vertex 33.5 84 0
    endloop
  endfacet
  facet normal 0 0 -1
    outer loop
      vertex -8 84 0
      vertex 0 84 0
      vertex -8 17 0
    endloop
  endfacet
  facet normal 0 0 -1
    outer loop
      vertex -47 99.6 0
      vertex 0 84 0
      vertex -8 84 0
    endloop
  endfacet
  facet normal 0 0 -1
    outer loop
      vertex -47 99.6 0
      vertex -8 84 0
      vertex -41.5 84 0
    endloop
  endfacet
  facet normal 0 0 -1
    outer loop
      vertex -49.5 17 0
      vertex -41.5 17 0
      vertex -47 5 0
    endloop
  endfacet
  facet normal 0 0 -1
    outer loop
      vertex -49.5 17 0
      vertex -41.5 84 0
      vertex -41.5 17 0
    endloop
  endfacet
  facet normal 0 0 -1
    outer loop
      vertex -47 99.6 0
      vertex -41.5 84 0
      vertex -47 95.6 0
    endloop
  endfacet
  facet normal 0 0 -1
    outer loop
      vertex 0 84 0
      vertex -47 99.6 0
      vertex 47 99.6 0
    endloop
  endfacet
  facet normal 0 0 -1
    outer loop
      vertex -47 99.6 0
      vertex 94 100.6 0
      vertex 47 99.6 0
    endloop
  endfacet
  facet normal 0 0 -1
    outer loop
      vertex -94 100.6 0
      vertex -47 99.6 0
      vertex -53 99.6 0
    endloop
  endfacet
  facet normal 0 0 -1
    outer loop
      vertex -94 100.6 0
      vertex -83 84 0
      vertex -94 88 0
    endloop
  endfacet
  facet normal 0 0 -1
    outer loop
      vertex -47 99.6 0
      vertex -94 100.6 0
      vertex 94 100.6 0
    endloop
  endfacet
  facet normal 0 0 -1
    outer loop
      vertex -83 84 0
      vertex -94 100.6 0
      vertex -53 99.6 0
    endloop
  endfacet
  facet normal 0 0 -1
    outer loop
      vertex 53 5 0
      vertex 75 17 0
      vertex 53 1 0
    endloop
  endfacet
  facet normal 0 0 -1
    outer loop
      vertex 41.5 17 0
      vertex 53 5 0
      vertex 47 5 0
    endloop
  endfacet
  facet normal 0 0 -1
    outer loop
      vertex 53 5 0
      vertex 41.5 17 0
      vertex 75 17 0
    endloop
  endfacet
  facet normal -1 0 0
    outer loop
      vertex -110.15 70 0
      vertex -110.15 22.75 0
      vertex -110.15 70 5.5
    endloop
  endfacet
  facet normal -1 0 0
    outer loop
      vertex -110.15 86.0975 9.5
      vertex -110.15 88 10
      vertex -110.15 88 7.55
    endloop
  endfacet
  facet normal -1 0 0
    outer loop
      vertex -110.15 73.9025 9.5
      vertex -110.15 88 10
      vertex -110.15 86.0975 9.5
    endloop
  endfacet
  facet normal -1 0 0
    outer loop
      vertex -110.15 22.75 5.5
      vertex -110.15 70 5.5
      vertex -110.15 22.75 0
    endloop
  endfacet
  facet normal -1 0 0
    outer loop
      vertex -110.15 70 5.5
      vertex -110.15 22.75 5.5
      vertex -110.15 73.9025 9.5
    endloop
  endfacet
  facet normal -1 0 0
    outer loop
      vertex -110.15 18.8476 9.5
      vertex -110.15 73.9025 9.5
      vertex -110.15 22.75 5.5
    endloop
  endfacet
  facet normal -1 0 0
    outer loop
      vertex -110.15 18.8476 9.5
      vertex -110.15 88 10
      vertex -110.15 73.9025 9.5
    endloop
  endfacet
  facet normal -1 0 0
    outer loop
      vertex -110.15 0 10
      vertex -110.15 18.8476 9.5
      vertex -110.15 2.65245 9.5
    endloop
  endfacet
  facet normal -1 0 0
    outer loop
      vertex -110.15 18.8476 9.5
      vertex -110.15 0 10
      vertex -110.15 88 10
    endloop
  endfacet
  facet normal -1 0 0
    outer loop
      vertex -110.15 0 10
      vertex -110.15 2.65245 9.5
      vertex -110.15 0 6.78125
    endloop
  endfacet
  facet normal 0 1 -0
    outer loop
      vertex 94 101 0.4
      vertex -94 101 3
      vertex 94 101 3
    endloop
  endfacet
  facet normal 0 1 0
    outer loop
      vertex -94 101 3
      vertex 94 101 0.4
      vertex -94 101 0.4
    endloop
  endfacet
  facet normal 0 -1 0
    outer loop
      vertex -110.14 0 6.78125
      vertex -110.15 0 10
      vertex -110.15 0 6.78125
    endloop
  endfacet
  facet normal 0 -1 0
    outer loop
      vertex -110.15 0 10
      vertex -110.14 0 6.78125
      vertex -106.15 0 10
    endloop
  endfacet
  facet normal 0 -1 0
    outer loop
      vertex -110.14 0 6.78125
      vertex -106.15 0 3
      vertex -106.15 0 10
    endloop
  endfacet
  facet normal 0 -1 0
    outer loop
      vertex -106.15 0 3
      vertex -106.15 0 0.4
      vertex 106.15 0 3
    endloop
  endfacet
  facet normal 0 -1 0
    outer loop
      vertex -110.14 0 0
      vertex -106.15 0 3
      vertex -110.14 0 6.78125
    endloop
  endfacet
  facet normal 0 -1 -0
    outer loop
      vertex -106.15 0 3
      vertex -110.14 0 0
      vertex -106.15 0 0.4
    endloop
  endfacet
  facet normal 0 -1 -0
    outer loop
      vertex -106.15 0 0.4
      vertex -110.14 0 0
      vertex -106.15 0 0
    endloop
  endfacet
  facet normal 0 -1 0
    outer loop
      vertex 106.15 0 10
      vertex 110.14 0 6.78125
      vertex 110.15 0 10
    endloop
  endfacet
  facet normal 0 -1 0
    outer loop
      vertex 106.15 0 3
      vertex 110.14 0 6.78125
      vertex 106.15 0 10
    endloop
  endfacet
  facet normal 0 -1 0
    outer loop
      vertex 106.15 0 0.4
      vertex 106.15 0 3
      vertex -106.15 0 0.4
    endloop
  endfacet
  facet normal 0 -1 0
    outer loop
      vertex 110.14 0 0
      vertex 106.15 0 3
      vertex 106.15 0 0.4
    endloop
  endfacet
  facet normal 0 -1 0
    outer loop
      vertex 110.14 0 0
      vertex 106.15 0 0.4
      vertex 106.15 0 0
    endloop
  endfacet
  facet normal 0 -1 0
    outer loop
      vertex 106.15 0 3
      vertex 110.14 0 0
      vertex 110.14 0 6.78125
    endloop
  endfacet
  facet normal 0 -1 -0
    outer loop
      vertex 110.15 0 10
      vertex 110.14 0 6.78125
      vertex 110.15 0 6.78125
    endloop
  endfacet
  facet normal 1 0 0
    outer loop
      vertex 110.15 88 10
      vertex 110.15 86.0975 9.5
      vertex 110.15 88 7.55
    endloop
  endfacet
  facet normal 1 0 0
    outer loop
      vertex 110.15 88 10
      vertex 110.15 73.9025 9.5
      vertex 110.15 86.0975 9.5
    endloop
  endfacet
  facet normal 1 0 0
    outer loop
      vertex 110.15 70 5.5
      vertex 110.15 22.75 5.5
      vertex 110.15 70 0
    endloop
  endfacet
  facet normal 1 0 0
    outer loop
      vertex 110.15 73.9025 9.5
      vertex 110.15 22.75 5.5
      vertex 110.15 70 5.5
    endloop
  endfacet
  facet normal 1 0 0
    outer loop
      vertex 110.15 73.9025 9.5
      vertex 110.15 18.8476 9.5
      vertex 110.15 22.75 5.5
    endloop
  endfacet
  facet normal 1 0 0
    outer loop
      vertex 110.15 88 10
      vertex 110.15 18.8476 9.5
      vertex 110.15 73.9025 9.5
    endloop
  endfacet
  facet normal 1 -0 0
    outer loop
      vertex 110.15 0 10
      vertex 110.15 18.8476 9.5
      vertex 110.15 88 10
    endloop
  endfacet
  facet normal 1 0 0
    outer loop
      vertex 110.15 18.8476 9.5
      vertex 110.15 0 10
      vertex 110.15 2.65245 9.5
    endloop
  endfacet
  facet normal 1 0 0
    outer loop
      vertex 110.15 2.65245 9.5
      vertex 110.15 0 10
      vertex 110.15 0 6.78125
    endloop
  endfacet
  facet normal 1 0 0
    outer loop
      vertex 110.15 70 0
      vertex 110.15 22.75 5.5
      vertex 110.15 22.75 0
    endloop
  endfacet
  facet normal -0 0 1
    outer loop
      vertex 106.15 88 10
      vertex 110.15 0 10
      vertex 110.15 88 10
    endloop
  endfacet
  facet normal 0 0 1
    outer loop
      vertex 110.15 0 10
      vertex 106.15 88 10
      vertex 106.15 0 10
    endloop
  endfacet
  facet normal -1 0 0
    outer loop
      vertex 106.15 0 3
      vertex 106.15 88 10
      vertex 106.15 88 3
    endloop
  endfacet
  facet normal -1 -0 0
    outer loop
      vertex 106.15 88 10
      vertex 106.15 0 3
      vertex 106.15 0 10
    endloop
  endfacet
  facet normal -1 0 0
    outer loop
      vertex 106.15 0.4 0
      vertex 106.15 0 0
      vertex 106.15 0 0.4
    endloop
  endfacet
  facet normal -0 0 1
    outer loop
      vertex -95 15 8
      vertex 95.5 9 8
      vertex 95.5 15 8
    endloop
  endfacet
  facet normal 0 0 1
    outer loop
      vertex 95.5 9 8
      vertex -95 15 8
      vertex -95 9 8
    endloop
  endfacet
  facet normal -1 0 0
    outer loop
      vertex -95 9 3
      vertex -95 15 8
      vertex -95 15 3
    endloop
  endfacet
  facet normal -1 -0 0
    outer loop
      vertex -95 15 8
      vertex -95 9 3
      vertex -95 9 8
    endloop
  endfacet
  facet normal 0 1 0
    outer loop
      vertex 97.5 15 11
      vertex 95.5 15 8
      vertex 95.5 15 11
    endloop
  endfacet
  facet normal 0 1 -0
    outer loop
      vertex 97.5 15 3
      vertex 95.5 15 8
      vertex 97.5 15 11
    endloop
  endfacet
  facet normal 0 1 0
    outer loop
      vertex -95 15 3
      vertex 95.5 15 8
      vertex 97.5 15 3
    endloop
  endfacet
  facet normal 0 1 0
    outer loop
      vertex 95.5 15 8
      vertex -95 15 3
      vertex -95 15 8
    endloop
  endfacet
  facet normal 0 -1 0
    outer loop
      vertex -95 9 8
      vertex -95 9 3
      vertex 95.5 9 8
    endloop
  endfacet
  facet normal 0 -1 0
    outer loop
      vertex 95.5 9 8
      vertex 97.5 9 11
      vertex 95.5 9 11
    endloop
  endfacet
  facet normal 0 -1 0
    outer loop
      vertex 95.5 9 8
      vertex 97.5 9 3
      vertex 97.5 9 11
    endloop
  endfacet
  facet normal 0 -1 0
    outer loop
      vertex 97.5 9 3
      vertex 95.5 9 8
      vertex -95 9 3
    endloop
  endfacet
  facet normal 0 0 1
    outer loop
      vertex 94 92 8
      vertex -94 92 8
      vertex 94 88 8
    endloop
  endfacet
  facet normal -0 0 1
    outer loop
      vertex 94 88 8
      vertex 95.5 86 8
      vertex 95.5 88 8
    endloop
  endfacet
  facet normal 0 0 1
    outer loop
      vertex -94 88 8
      vertex 94 88 8
      vertex -94 92 8
    endloop
  endfacet
  facet normal 0 0 1
    outer loop
      vertex -95 86 8
      vertex 94 88 8
      vertex -94 88 8
    endloop
  endfacet
  facet normal 0 0 1
    outer loop
      vertex -95 86 8
      vertex -94 88 8
      vertex -95 88 8
    endloop
  endfacet
  facet normal 0 0 1
    outer loop
      vertex 94 88 8
      vertex -95 86 8
      vertex 95.5 86 8
    endloop
  endfacet
  facet normal -1 0 0
    outer loop
      vertex -95 86 3
      vertex -95 88 8
      vertex -95 88 3
    endloop
  endfacet
  facet normal -1 -0 0
    outer loop
      vertex -95 88 8
      vertex -95 86 3
      vertex -95 86 8
    endloop
  endfacet
  facet normal 0 1 -0
    outer loop
      vertex 94 92 3
      vertex -94 92 8
      vertex 94 92 8
    endloop
  endfacet
  facet normal 0 1 0
    outer loop
      vertex -94 92 8
      vertex 94 92 3
      vertex -94 92 3
    endloop
  endfacet
  facet normal 0 -1 0
    outer loop
      vertex -95 86 8
      vertex -95 86 3
      vertex 95.5 86 8
    endloop
  endfacet
  facet normal 0 -1 0
    outer loop
      vertex 95.5 86 8
      vertex 97.5 86 11
      vertex 95.5 86 11
    endloop
  endfacet
  facet normal 0 -1 0
    outer loop
      vertex 95.5 86 8
      vertex 97.5 86 3
      vertex 97.5 86 11
    endloop
  endfacet
  facet normal 0 -1 0
    outer loop
      vertex 97.5 86 3
      vertex 95.5 86 8
      vertex -95 86 3
    endloop
  endfacet
  facet normal 1 -0 0
    outer loop
      vertex -95.5 9 11
      vertex -95.5 15 3
      vertex -95.5 15 11
    endloop
  endfacet
  facet normal 1 0 0
    outer loop
      vertex -95.5 15 3
      vertex -95.5 9 11
      vertex -95.5 9 3
    endloop
  endfacet
  facet normal -0 0 1
    outer loop
      vertex -97.5 15 11
      vertex -95.5 9 11
      vertex -95.5 15 11
    endloop
  endfacet
  facet normal 0 0 1
    outer loop
      vertex -95.5 9 11
      vertex -97.5 15 11
      vertex -97.5 9 11
    endloop
  endfacet
  facet normal -1 0 0
    outer loop
      vertex -97.5 9 3
      vertex -97.5 15 11
      vertex -97.5 15 3
    endloop
  endfacet
  facet normal -1 -0 0
    outer loop
      vertex -97.5 15 11
      vertex -97.5 9 3
      vertex -97.5 9 11
    endloop
  endfacet
  facet normal 0 1 -0
    outer loop
      vertex -95.5 15 3
      vertex -97.5 15 11
      vertex -95.5 15 11
    endloop
  endfacet
  facet normal 0 1 0
    outer loop
      vertex -97.5 15 11
      vertex -95.5 15 3
      vertex -97.5 15 3
    endloop
  endfacet
  facet normal 0 -1 0
    outer loop
      vertex -97.5 9 3
      vertex -95.5 9 11
      vertex -97.5 9 11
    endloop
  endfacet
  facet normal 0 -1 -0
    outer loop
      vertex -95.5 9 11
      vertex -97.5 9 3
      vertex -95.5 9 3
    endloop
  endfacet
  facet normal 1 -0 0
    outer loop
      vertex 97.5 9 11
      vertex 97.5 15 3
      vertex 97.5 15 11
    endloop
  endfacet
  facet normal 1 0 0
    outer loop
      vertex 97.5 15 3
      vertex 97.5 9 11
      vertex 97.5 9 3
    endloop
  endfacet
  facet normal -0 0 1
    outer loop
      vertex 95.5 15 11
      vertex 97.5 9 11
      vertex 97.5 15 11
    endloop
  endfacet
  facet normal 0 0 1
    outer loop
      vertex 97.5 9 11
      vertex 95.5 15 11
      vertex 95.5 9 11
    endloop
  endfacet
  facet normal -1 0 0
    outer loop
      vertex 95.5 9 8
      vertex 95.5 15 11
      vertex 95.5 15 8
    endloop
  endfacet
  facet normal -1 -0 0
    outer loop
      vertex 95.5 15 11
      vertex 95.5 9 8
      vertex 95.5 9 11
    endloop
  endfacet
  facet normal 1 -0 0
    outer loop
      vertex -95.5 86 11
      vertex -95.5 88 3
      vertex -95.5 88 11
    endloop
  endfacet
  facet normal 1 0 0
    outer loop
      vertex -95.5 88 3
      vertex -95.5 86 11
      vertex -95.5 86 3
    endloop
  endfacet
  facet normal -0 0 1
    outer loop
      vertex -97.5 88 11
      vertex -95.5 86 11
      vertex -95.5 88 11
    endloop
  endfacet
  facet normal 0 0 1
    outer loop
      vertex -95.5 86 11
      vertex -97.5 88 11
      vertex -97.5 86 11
    endloop
  endfacet
  facet normal -1 0 0
    outer loop
      vertex -97.5 86 3
      vertex -97.5 88 11
      vertex -97.5 88 3
    endloop
  endfacet
  facet normal -1 -0 0
    outer loop
      vertex -97.5 88 11
      vertex -97.5 86 3
      vertex -97.5 86 11
    endloop
  endfacet
  facet normal 0 -1 0
    outer loop
      vertex -97.5 86 3
      vertex -95.5 86 11
      vertex -97.5 86 11
    endloop
  endfacet
  facet normal 0 -1 -0
    outer loop
      vertex -95.5 86 11
      vertex -97.5 86 3
      vertex -95.5 86 3
    endloop
  endfacet
  facet normal 1 -0 0
    outer loop
      vertex 97.5 86 11
      vertex 97.5 88 3
      vertex 97.5 88 11
    endloop
  endfacet
  facet normal 1 0 0
    outer loop
      vertex 97.5 88 3
      vertex 97.5 86 11
      vertex 97.5 86 3
    endloop
  endfacet
  facet normal -0 0 1
    outer loop
      vertex 95.5 88 11
      vertex 97.5 86 11
      vertex 97.5 88 11
    endloop
  endfacet
  facet normal 0 0 1
    outer loop
      vertex 97.5 86 11
      vertex 95.5 88 11
      vertex 95.5 86 11
    endloop
  endfacet
  facet normal -1 0 0
    outer loop
      vertex 95.5 86 8
      vertex 95.5 88 11
      vertex 95.5 88 8
    endloop
  endfacet
  facet normal -1 -0 0
    outer loop
      vertex 95.5 88 11
      vertex 95.5 86 8
      vertex 95.5 86 11
    endloop
  endfacet
  facet normal 1 -0 0
    outer loop
      vertex -75 5.6 22
      vertex -75 8 3
      vertex -75 8 22
    endloop
  endfacet
  facet normal 1 0 0
    outer loop
      vertex -75 8 3
      vertex -75 5.6 22
      vertex -75 5.6 3
    endloop
  endfacet
  facet normal -0 0 1
    outer loop
      vertex -91 8 22
      vertex -75 5.6 22
      vertex -75 8 22
    endloop
  endfacet
  facet normal 0 0 1
    outer loop
      vertex -75 5.6 22
      vertex -91 8 22
      vertex -91 5.6 22
    endloop
  endfacet
  facet normal -1 0 0
    outer loop
      vertex -91 5.6 3
      vertex -91 8 22
      vertex -91 8 3
    endloop
  endfacet
  facet normal -1 -0 0
    outer loop
      vertex -91 8 22
      vertex -91 5.6 3
      vertex -91 5.6 22
    endloop
  endfacet
  facet normal 0 1 -0
    outer loop
      vertex -75 8 3
      vertex -91 8 22
      vertex -75 8 22
    endloop
  endfacet
  facet normal 0 1 0
    outer loop
      vertex -91 8 22
      vertex -75 8 3
      vertex -91 8 3
    endloop
  endfacet
  facet normal 0 -1 0
    outer loop
      vertex -91 5.6 3
      vertex -75 5.6 22
      vertex -91 5.6 22
    endloop
  endfacet
  facet normal 0 -1 -0
    outer loop
      vertex -75 5.6 22
      vertex -91 5.6 3
      vertex -75 5.6 3
    endloop
  endfacet
  facet normal 1 -0 0
    outer loop
      vertex -75 93 22
      vertex -75 95.4 3
      vertex -75 95.4 22
    endloop
  endfacet
  facet normal 1 0 0
    outer loop
      vertex -75 95.4 3
      vertex -75 93 22
      vertex -75 93 3
    endloop
  endfacet
  facet normal -0 0 1
    outer loop
      vertex -91 95.4 22
      vertex -75 93 22
      vertex -75 95.4 22
    endloop
  endfacet
  facet normal 0 0 1
    outer loop
      vertex -75 93 22
      vertex -91 95.4 22
      vertex -91 93 22
    endloop
  endfacet
  facet normal -1 0 0
    outer loop
      vertex -91 93 3
      vertex -91 95.4 22
      vertex -91 95.4 3
    endloop
  endfacet
  facet normal -1 -0 0
    outer loop
      vertex -91 95.4 22
      vertex -91 93 3
      vertex -91 93 22
    endloop
  endfacet
  facet normal 0 1 -0
    outer loop
      vertex -75 95.4 3
      vertex -91 95.4 22
      vertex -75 95.4 22
    endloop
  endfacet
  facet normal 0 1 0
    outer loop
      vertex -91 95.4 22
      vertex -75 95.4 3
      vertex -91 95.4 3
    endloop
  endfacet
  facet normal 0 -1 0
    outer loop
      vertex -91 93 3
      vertex -75 93 22
      vertex -91 93 22
    endloop
  endfacet
  facet normal 0 -1 -0
    outer loop
      vertex -75 93 22
      vertex -91 93 3
      vertex -75 93 3
    endloop
  endfacet
  facet normal 1 -0 0
    outer loop
      vertex 91 5.6 22
      vertex 91 8 3
      vertex 91 8 22
    endloop
  endfacet
  facet normal 1 0 0
    outer loop
      vertex 91 8 3
      vertex 91 5.6 22
      vertex 91 5.6 3
    endloop
  endfacet
  facet normal -0 0 1
    outer loop
      vertex 75 8 22
      vertex 91 5.6 22
      vertex 91 8 22
    endloop
  endfacet
  facet normal 0 0 1
    outer loop
      vertex 91 5.6 22
      vertex 75 8 22
      vertex 75 5.6 22
    endloop
  endfacet
  facet normal -1 0 0
    outer loop
      vertex 75 5.6 3
      vertex 75 8 22
      vertex 75 8 3
    endloop
  endfacet
  facet normal -1 -0 0
    outer loop
      vertex 75 8 22
      vertex 75 5.6 3
      vertex 75 5.6 22
    endloop
  endfacet
  facet normal 0 1 -0
    outer loop
      vertex 91 8 3
      vertex 75 8 22
      vertex 91 8 22
    endloop
  endfacet
  facet normal 0 1 0
    outer loop
      vertex 75 8 22
      vertex 91 8 3
      vertex 75 8 3
    endloop
  endfacet
  facet normal 0 -1 0
    outer loop
      vertex 75 5.6 3
      vertex 91 5.6 22
      vertex 75 5.6 22
    endloop
  endfacet
  facet normal 0 -1 -0
    outer loop
      vertex 91 5.6 22
      vertex 75 5.6 3
      vertex 91 5.6 3
    endloop
  endfacet
  facet normal 1 -0 0
    outer loop
      vertex 91 93 22
      vertex 91 95.4 3
      vertex 91 95.4 22
    endloop
  endfacet
  facet normal 1 0 0
    outer loop
      vertex 91 95.4 3
      vertex 91 93 22
      vertex 91 93 3
    endloop
  endfacet
  facet normal -0 0 1
    outer loop
      vertex 75 95.4 22
      vertex 91 93 22
      vertex 91 95.4 22
    endloop
  endfacet
  facet normal 0 0 1
    outer loop
      vertex 91 93 22
      vertex 75 95.4 22
      vertex 75 93 22
    endloop
  endfacet
  facet normal -1 0 0
    outer loop
      vertex 75 93 3
      vertex 75 95.4 22
      vertex 75 95.4 3
    endloop
  endfacet
  facet normal -1 -0 0
    outer loop
      vertex 75 95.4 22
      vertex 75 93 3
      vertex 75 93 22
    endloop
  endfacet
  facet normal 0 1 -0
    outer loop
      vertex 91 95.4 3
      vertex 75 95.4 22
      vertex 91 95.4 22
    endloop
  endfacet
  facet normal 0 1 0
    outer loop
      vertex 75 95.4 22
      vertex 91 95.4 3
      vertex 75 95.4 3
    endloop
  endfacet
  facet normal 0 -1 0
    outer loop
      vertex 75 93 3
      vertex 91 93 22
      vertex 75 93 22
    endloop
  endfacet
  facet normal 0 -1 -0
    outer loop
      vertex 91 93 22
      vertex 75 93 3
      vertex 91 93 3
    endloop
  endfacet
  facet normal 1 -0 0
    outer loop
      vertex 8 5.6 22
      vertex 8 8 3
      vertex 8 8 22
    endloop
  endfacet
  facet normal 1 0 0
    outer loop
      vertex 8 8 3
      vertex 8 5.6 22
      vertex 8 5.6 3
    endloop
  endfacet
  facet normal -0 0 1
    outer loop
      vertex -8 8 22
      vertex 8 5.6 22
      vertex 8 8 22
    endloop
  endfacet
  facet normal 0 0 1
    outer loop
      vertex 8 5.6 22
      vertex -8 8 22
      vertex -8 5.6 22
    endloop
  endfacet
  facet normal -1 0 0
    outer loop
      vertex -8 5.6 3
      vertex -8 8 22
      vertex -8 8 3
    endloop
  endfacet
  facet normal -1 -0 0
    outer loop
      vertex -8 8 22
      vertex -8 5.6 3
      vertex -8 5.6 22
    endloop
  endfacet
  facet normal 0 1 -0
    outer loop
      vertex 8 8 3
      vertex -8 8 22
      vertex 8 8 22
    endloop
  endfacet
  facet normal 0 1 0
    outer loop
      vertex -8 8 22
      vertex 8 8 3
      vertex -8 8 3
    endloop
  endfacet
  facet normal 0 -1 0
    outer loop
      vertex -8 5.6 3
      vertex 8 5.6 22
      vertex -8 5.6 22
    endloop
  endfacet
  facet normal 0 -1 -0
    outer loop
      vertex 8 5.6 22
      vertex -8 5.6 3
      vertex 8 5.6 3
    endloop
  endfacet
  facet normal 1 -0 0
    outer loop
      vertex 8 93 22
      vertex 8 95.4 3
      vertex 8 95.4 22
    endloop
  endfacet
  facet normal 1 0 0
    outer loop
      vertex 8 95.4 3
      vertex 8 93 22
      vertex 8 93 3
    endloop
  endfacet
  facet normal -0 0 1
    outer loop
      vertex -8 95.4 22
      vertex 8 93 22
      vertex 8 95.4 22
    endloop
  endfacet
  facet normal 0 0 1
    outer loop
      vertex 8 93 22
      vertex -8 95.4 22
      vertex -8 93 22
    endloop
  endfacet
  facet normal -1 0 0
    outer loop
      vertex -8 93 3
      vertex -8 95.4 22
      vertex -8 95.4 3
    endloop
  endfacet
  facet normal -1 -0 0
    outer loop
      vertex -8 95.4 22
      vertex -8 93 3
      vertex -8 93 22
    endloop
  endfacet
  facet normal 0 1 -0
    outer loop
      vertex 8 95.4 3
      vertex -8 95.4 22
      vertex 8 95.4 22
    endloop
  endfacet
  facet normal 0 1 0
    outer loop
      vertex -8 95.4 22
      vertex 8 95.4 3
      vertex -8 95.4 3
    endloop
  endfacet
  facet normal 0 -1 0
    outer loop
      vertex -8 93 3
      vertex 8 93 22
      vertex -8 93 22
    endloop
  endfacet
  facet normal 0 -1 -0
    outer loop
      vertex 8 93 22
      vertex -8 93 3
      vertex 8 93 3
    endloop
  endfacet
  facet normal -0.707107 0 -0.707107
    outer loop
      vertex -111.65 22.75 0
      vertex -120.65 19.3354 9
      vertex -117.15 22.75 5.5
    endloop
  endfacet
  facet normal -0.707107 0 -0.707107
    outer loop
      vertex -111.65 22.75 0
      vertex -120.65 2.16464 9
      vertex -120.65 19.3354 9
    endloop
  endfacet
  facet normal -0.707107 0 -0.707107
    outer loop
      vertex -111.65 -1.25 0
      vertex -120.65 2.16464 9
      vertex -111.65 22.75 0
    endloop
  endfacet
  facet normal -0.707107 0 -0.707107
    outer loop
      vertex -120.65 2.16464 9
      vertex -111.65 -1.25 0
      vertex -117.15 -1.25 5.5
    endloop
  endfacet
  facet normal -0 0 1
    outer loop
      vertex -120.65 18.8476 9.5
      vertex -110.15 2.65245 9.5
      vertex -110.15 18.8476 9.5
    endloop
  endfacet
  facet normal 0 0 1
    outer loop
      vertex -110.15 2.65245 9.5
      vertex -120.65 18.8476 9.5
      vertex -120.65 2.65245 9.5
    endloop
  endfacet
  facet normal -1 0 0
    outer loop
      vertex -120.65 19.3354 9
      vertex -120.65 2.65245 9.5
      vertex -120.65 18.8476 9.5
    endloop
  endfacet
  facet normal -1 0 -0
    outer loop
      vertex -120.65 2.65245 9.5
      vertex -120.65 19.3354 9
      vertex -120.65 2.16464 9
    endloop
  endfacet
  facet normal 1 -0 0
    outer loop
      vertex -110.14 -1.25 5.5
      vertex -110.14 0 0
      vertex -110.14 0 6.78125
    endloop
  endfacet
  facet normal 1 0 0
    outer loop
      vertex -110.14 0 0
      vertex -110.14 -1.25 5.5
      vertex -110.14 -1.25 0
    endloop
  endfacet
  facet normal 0 1 0
    outer loop
      vertex -111.65 22.75 0
      vertex -110.15 22.75 5.5
      vertex -110.15 22.75 0
    endloop
  endfacet
  facet normal 0 1 0
    outer loop
      vertex -110.15 22.75 5.5
      vertex -111.65 22.75 0
      vertex -117.15 22.75 5.5
    endloop
  endfacet
  facet normal 0 -1 0
    outer loop
      vertex -111.65 -1.25 0
      vertex -110.14 -1.25 5.5
      vertex -117.15 -1.25 5.5
    endloop
  endfacet
  facet normal 0 -1 -0
    outer loop
      vertex -110.14 -1.25 5.5
      vertex -111.65 -1.25 0
      vertex -110.14 -1.25 0
    endloop
  endfacet
  facet normal 6.13524e-06 -0.715778 0.698328
    outer loop
      vertex -117.15 -1.25 5.5
      vertex -120.65 2.65245 9.5
      vertex -120.65 2.16464 9
    endloop
  endfacet
  facet normal 0 -0.715781 0.698325
    outer loop
      vertex -120.65 2.65245 9.5
      vertex -117.15 -1.25 5.5
      vertex -110.15 2.65245 9.5
    endloop
  endfacet
  facet normal -5.28902e-07 -0.715781 0.698325
    outer loop
      vertex -110.15 2.65245 9.5
      vertex -117.15 -1.25 5.5
      vertex -110.15 0 6.78125
    endloop
  endfacet
  facet normal 0 -0.715782 0.698324
    outer loop
      vertex -110.14 -1.25 5.5
      vertex -110.15 0 6.78125
      vertex -117.15 -1.25 5.5
    endloop
  endfacet
  facet normal 0 -0.715782 0.698324
    outer loop
      vertex -110.15 0 6.78125
      vertex -110.14 -1.25 5.5
      vertex -110.14 0 6.78125
    endloop
  endfacet
  facet normal 0 0.715785 0.69832
    outer loop
      vertex -117.15 22.75 5.5
      vertex -120.65 18.8476 9.5
      vertex -110.15 18.8476 9.5
    endloop
  endfacet
  facet normal -0 0.715785 0.69832
    outer loop
      vertex -117.15 22.75 5.5
      vertex -110.15 18.8476 9.5
      vertex -110.15 22.75 5.5
    endloop
  endfacet
  facet normal 0 0.715785 0.69832
    outer loop
      vertex -120.65 18.8476 9.5
      vertex -117.15 22.75 5.5
      vertex -120.65 19.3354 9
    endloop
  endfacet
  facet normal -0.707107 1.88172e-15 -0.707107
    outer loop
      vertex -111.65 88 0
      vertex -120.65 86.5854 9
      vertex -119.2 88 7.55
    endloop
  endfacet
  facet normal -0.707107 0 -0.707107
    outer loop
      vertex -111.65 88 0
      vertex -120.65 73.4146 9
      vertex -120.65 86.5854 9
    endloop
  endfacet
  facet normal -0.707107 0 -0.707107
    outer loop
      vertex -111.65 70 0
      vertex -120.65 73.4146 9
      vertex -111.65 88 0
    endloop
  endfacet
  facet normal -0.707107 0 -0.707107
    outer loop
      vertex -120.65 73.4146 9
      vertex -111.65 70 0
      vertex -117.15 70 5.5
    endloop
  endfacet
  facet normal -0 0 1
    outer loop
      vertex -120.65 86.0975 9.5
      vertex -110.15 73.9025 9.5
      vertex -110.15 86.0975 9.5
    endloop
  endfacet
  facet normal 0 0 1
    outer loop
      vertex -110.15 73.9025 9.5
      vertex -120.65 86.0975 9.5
      vertex -120.65 73.9025 9.5
    endloop
  endfacet
  facet normal -1 0 0
    outer loop
      vertex -120.65 86.5854 9
      vertex -120.65 73.9025 9.5
      vertex -120.65 86.0975 9.5
    endloop
  endfacet
  facet normal -1 0 -0
    outer loop
      vertex -120.65 73.9025 9.5
      vertex -120.65 86.5854 9
      vertex -120.65 73.4146 9
    endloop
  endfacet
  facet normal 0 -1 0
    outer loop
      vertex -111.65 70 0
      vertex -110.15 70 5.5
      vertex -117.15 70 5.5
    endloop
  endfacet
  facet normal 0 -1 -0
    outer loop
      vertex -110.15 70 5.5
      vertex -111.65 70 0
      vertex -110.15 70 0
    endloop
  endfacet
  facet normal 0.000143143 -0.715714 0.698394
    outer loop
      vertex -117.15 70 5.5
      vertex -120.65 73.9025 9.5
      vertex -120.65 73.4146 9
    endloop
  endfacet
  facet normal 0 -0.715776 0.698329
    outer loop
      vertex -120.65 73.9025 9.5
      vertex -117.15 70 5.5
      vertex -110.15 73.9025 9.5
    endloop
  endfacet
  facet normal 0 -0.715776 0.698329
    outer loop
      vertex -110.15 73.9025 9.5
      vertex -117.15 70 5.5
      vertex -110.15 70 5.5
    endloop
  endfacet
  facet normal 0 0.715771 0.698335
    outer loop
      vertex -119.2 88 7.55
      vertex -120.65 86.0975 9.5
      vertex -110.15 86.0975 9.5
    endloop
  endfacet
  facet normal -0 0.715771 0.698335
    outer loop
      vertex -119.2 88 7.55
      vertex -110.15 86.0975 9.5
      vertex -110.15 88 7.55
    endloop
  endfacet
  facet normal 0.000153015 0.715714 0.698394
    outer loop
      vertex -120.65 86.0975 9.5
      vertex -119.2 88 7.55
      vertex -120.65 86.5854 9
    endloop
  endfacet
  facet normal 0.707107 0 -0.707107
    outer loop
      vertex 120.65 19.3354 9
      vertex 111.65 22.75 0
      vertex 117.15 22.75 5.5
    endloop
  endfacet
  facet normal 0.707107 0 -0.707107
    outer loop
      vertex 120.65 2.16464 9
      vertex 111.65 22.75 0
      vertex 120.65 19.3354 9
    endloop
  endfacet
  facet normal 0.707107 0 -0.707107
    outer loop
      vertex 111.65 -1.25 0
      vertex 120.65 2.16464 9
      vertex 117.15 -1.25 5.5
    endloop
  endfacet
  facet normal 0.707107 0 -0.707107
    outer loop
      vertex 120.65 2.16464 9
      vertex 111.65 -1.25 0
      vertex 111.65 22.75 0
    endloop
  endfacet
  facet normal -0 0 1
    outer loop
      vertex 110.15 18.8476 9.5
      vertex 120.65 2.65245 9.5
      vertex 120.65 18.8476 9.5
    endloop
  endfacet
  facet normal 0 0 1
    outer loop
      vertex 120.65 2.65245 9.5
      vertex 110.15 18.8476 9.5
      vertex 110.15 2.65245 9.5
    endloop
  endfacet
  facet normal 1 -0 0
    outer loop
      vertex 120.65 2.65245 9.5
      vertex 120.65 19.3354 9
      vertex 120.65 18.8476 9.5
    endloop
  endfacet
  facet normal 1 0 0
    outer loop
      vertex 120.65 19.3354 9
      vertex 120.65 2.65245 9.5
      vertex 120.65 2.16464 9
    endloop
  endfacet
  facet normal -1 0 0
    outer loop
      vertex 110.14 -1.25 5.5
      vertex 110.14 0 0
      vertex 110.14 -1.25 0
    endloop
  endfacet
  facet normal -1 0 0
    outer loop
      vertex 110.14 0 0
      vertex 110.14 -1.25 5.5
      vertex 110.14 0 6.78125
    endloop
  endfacet
  facet normal 0 1 -0
    outer loop
      vertex 111.65 22.75 0
      vertex 110.15 22.75 5.5
      vertex 117.15 22.75 5.5
    endloop
  endfacet
  facet normal 0 1 0
    outer loop
      vertex 110.15 22.75 5.5
      vertex 111.65 22.75 0
      vertex 110.15 22.75 0
    endloop
  endfacet
  facet normal 0 -1 0
    outer loop
      vertex 111.65 -1.25 0
      vertex 110.14 -1.25 5.5
      vertex 110.14 -1.25 0
    endloop
  endfacet
  facet normal 0 -1 0
    outer loop
      vertex 110.14 -1.25 5.5
      vertex 111.65 -1.25 0
      vertex 117.15 -1.25 5.5
    endloop
  endfacet
  facet normal 0 -0.715782 0.698324
    outer loop
      vertex 110.14 0 6.78125
      vertex 110.14 -1.25 5.5
      vertex 110.15 0 6.78125
    endloop
  endfacet
  facet normal 0 -0.715781 0.698325
    outer loop
      vertex 117.15 -1.25 5.5
      vertex 120.65 2.65245 9.5
      vertex 110.15 2.65245 9.5
    endloop
  endfacet
  facet normal 5.28902e-07 -0.715781 0.698325
    outer loop
      vertex 117.15 -1.25 5.5
      vertex 110.15 2.65245 9.5
      vertex 110.15 0 6.78125
    endloop
  endfacet
  facet normal 0 -0.715782 0.698324
    outer loop
      vertex 117.15 -1.25 5.5
      vertex 110.15 0 6.78125
      vertex 110.14 -1.25 5.5
    endloop
  endfacet
  facet normal -6.13524e-06 -0.715778 0.698328
    outer loop
      vertex 120.65 2.65245 9.5
      vertex 117.15 -1.25 5.5
      vertex 120.65 2.16464 9
    endloop
  endfacet
  facet normal 0 0.715785 0.69832
    outer loop
      vertex 117.15 22.75 5.5
      vertex 120.65 18.8476 9.5
      vertex 120.65 19.3354 9
    endloop
  endfacet
  facet normal 0 0.715785 0.69832
    outer loop
      vertex 120.65 18.8476 9.5
      vertex 117.15 22.75 5.5
      vertex 110.15 18.8476 9.5
    endloop
  endfacet
  facet normal 0 0.715785 0.69832
    outer loop
      vertex 110.15 18.8476 9.5
      vertex 117.15 22.75 5.5
      vertex 110.15 22.75 5.5
    endloop
  endfacet
  facet normal 0.707107 1.6465e-15 -0.707107
    outer loop
      vertex 120.65 86.5854 9
      vertex 111.65 88 0
      vertex 119.2 88 7.55
    endloop
  endfacet
  facet normal 0.707107 0 -0.707107
    outer loop
      vertex 120.65 73.4146 9
      vertex 111.65 88 0
      vertex 120.65 86.5854 9
    endloop
  endfacet
  facet normal 0.707107 0 -0.707107
    outer loop
      vertex 111.65 70 0
      vertex 120.65 73.4146 9
      vertex 117.15 70 5.5
    endloop
  endfacet
  facet normal 0.707107 0 -0.707107
    outer loop
      vertex 120.65 73.4146 9
      vertex 111.65 70 0
      vertex 111.65 88 0
    endloop
  endfacet
  facet normal -0 0 1
    outer loop
      vertex 110.15 86.0975 9.5
      vertex 120.65 73.9025 9.5
      vertex 120.65 86.0975 9.5
    endloop
  endfacet
  facet normal 0 0 1
    outer loop
      vertex 120.65 73.9025 9.5
      vertex 110.15 86.0975 9.5
      vertex 110.15 73.9025 9.5
    endloop
  endfacet
  facet normal 1 -0 0
    outer loop
      vertex 120.65 73.9025 9.5
      vertex 120.65 86.5854 9
      vertex 120.65 86.0975 9.5
    endloop
  endfacet
  facet normal 1 0 0
    outer loop
      vertex 120.65 86.5854 9
      vertex 120.65 73.9025 9.5
      vertex 120.65 73.4146 9
    endloop
  endfacet
  facet normal 0 -1 0
    outer loop
      vertex 111.65 70 0
      vertex 110.15 70 5.5
      vertex 110.15 70 0
    endloop
  endfacet
  facet normal 0 -1 0
    outer loop
      vertex 110.15 70 5.5
      vertex 111.65 70 0
      vertex 117.15 70 5.5
    endloop
  endfacet
  facet normal 0 -0.715776 0.698329
    outer loop
      vertex 117.15 70 5.5
      vertex 120.65 73.9025 9.5
      vertex 110.15 73.9025 9.5
    endloop
  endfacet
  facet normal 0 -0.715776 0.698329
    outer loop
      vertex 117.15 70 5.5
      vertex 110.15 73.9025 9.5
      vertex 110.15 70 5.5
    endloop
  endfacet
  facet normal -0.000143143 -0.715714 0.698394
    outer loop
      vertex 120.65 73.9025 9.5
      vertex 117.15 70 5.5
      vertex 120.65 73.4146 9
    endloop
  endfacet
  facet normal -0.000153015 0.715714 0.698394
    outer loop
      vertex 119.2 88 7.55
      vertex 120.65 86.0975 9.5
      vertex 120.65 86.5854 9
    endloop
  endfacet
  facet normal 0 0.715771 0.698335
    outer loop
      vertex 120.65 86.0975 9.5
      vertex 119.2 88 7.55
      vertex 110.15 86.0975 9.5
    endloop
  endfacet
  facet normal 0 0.715771 0.698335
    outer loop
      vertex 110.15 86.0975 9.5
      vertex 119.2 88 7.55
      vertex 110.15 88 7.55
    endloop
  endfacet
  facet normal 0 -0.707107 -0.707107
    outer loop
      vertex -106.15 0.4 0
      vertex 106.15 0 0.4
      vertex -106.15 0 0.4
    endloop
  endfacet
  facet normal 0 -0.707107 -0.707107
    outer loop
      vertex 106.15 0 0.4
      vertex -106.15 0.4 0
      vertex 106.15 0.4 0
    endloop
  endfacet
  facet normal -0 0 1
    outer loop
      vertex -106.15 88 3
      vertex -97.5 86 3
      vertex -97.5 88 3
    endloop
  endfacet
  facet normal 0 0 1
    outer loop
      vertex -100.15 46 3
      vertex -106.15 88 3
      vertex -100.15 40 3
    endloop
  endfacet
  facet normal 0 0 1
    outer loop
      vertex -97.5 86 3
      vertex -106.15 88 3
      vertex -100.15 46 3
    endloop
  endfacet
  facet normal 0 0 1
    outer loop
      vertex -83 17 3
      vertex -96.15 40 3
      vertex -95 15 3
    endloop
  endfacet
  facet normal -0 0 1
    outer loop
      vertex -97.5 86 3
      vertex -96.15 46 3
      vertex -95.5 86 3
    endloop
  endfacet
  facet normal 0 0 1
    outer loop
      vertex -96.15 46 3
      vertex -97.5 86 3
      vertex -100.15 46 3
    endloop
  endfacet
  facet normal 0 0 1
    outer loop
      vertex -95 15 3
      vertex -96.15 40 3
      vertex -95.5 15 3
    endloop
  endfacet
  facet normal 0 0 1
    outer loop
      vertex -96.15 40 3
      vertex -97.5 15 3
      vertex -95.5 15 3
    endloop
  endfacet
  facet normal 0 0 1
    outer loop
      vertex -106.15 0 3
      vertex -97.5 15 3
      vertex -100.15 40 3
    endloop
  endfacet
  facet normal -0 0 1
    outer loop
      vertex -100.15 40 3
      vertex -97.5 15 3
      vertex -96.15 40 3
    endloop
  endfacet
  facet normal 0 0 1
    outer loop
      vertex -95.5 86 3
      vertex -95 86 3
      vertex -95 88 3
    endloop
  endfacet
  facet normal 0 0 1
    outer loop
      vertex -96.15 46 3
      vertex -95 86 3
      vertex -95.5 86 3
    endloop
  endfacet
  facet normal 0 0 1
    outer loop
      vertex -95.5 86 3
      vertex -95 88 3
      vertex -95.5 88 3
    endloop
  endfacet
  facet normal 0 0 1
    outer loop
      vertex 97.5 9 3
      vertex 75 8 3
      vertex 91 8 3
    endloop
  endfacet
  facet normal 0 0 1
    outer loop
      vertex 75 8 3
      vertex 53 5 3
      vertex 75 5.6 3
    endloop
  endfacet
  facet normal 0 0 1
    outer loop
      vertex 75 8 3
      vertex 47 5 3
      vertex 53 5 3
    endloop
  endfacet
  facet normal -0 0 1
    outer loop
      vertex 8 5.6 3
      vertex 47 5 3
      vertex 8 8 3
    endloop
  endfacet
  facet normal 0 0 1
    outer loop
      vertex 75 8 3
      vertex 8 8 3
      vertex 47 5 3
    endloop
  endfacet
  facet normal 0 0 1
    outer loop
      vertex 97.5 9 3
      vertex 8 8 3
      vertex 75 8 3
    endloop
  endfacet
  facet normal 0 0 1
    outer loop
      vertex 97.5 9 3
      vertex -8 8 3
      vertex 8 8 3
    endloop
  endfacet
  facet normal 0 0 1
    outer loop
      vertex -8 8 3
      vertex -47 5 3
      vertex -8 5.6 3
    endloop
  endfacet
  facet normal -0 0 1
    outer loop
      vertex -75 8 3
      vertex -47 5 3
      vertex -8 8 3
    endloop
  endfacet
  facet normal -0 0 1
    outer loop
      vertex -75 5.6 3
      vertex -53 5 3
      vertex -75 8 3
    endloop
  endfacet
  facet normal 0 0 1
    outer loop
      vertex -47 5 3
      vertex -75 8 3
      vertex -53 5 3
    endloop
  endfacet
  facet normal -0 0 1
    outer loop
      vertex -95 9 3
      vertex -8 8 3
      vertex 97.5 9 3
    endloop
  endfacet
  facet normal 0 0 1
    outer loop
      vertex -8 8 3
      vertex -95 9 3
      vertex -75 8 3
    endloop
  endfacet
  facet normal 0 0 1
    outer loop
      vertex -91 8 3
      vertex -95 9 3
      vertex -91 5.6 3
    endloop
  endfacet
  facet normal 0 0 1
    outer loop
      vertex -75 8 3
      vertex -95 9 3
      vertex -91 8 3
    endloop
  endfacet
  facet normal -0 0 1
    outer loop
      vertex 96.15 40 3
      vertex 97.5 15 3
      vertex 100.15 40 3
    endloop
  endfacet
  facet normal 0 0 1
    outer loop
      vertex 96.15 46 3
      vertex 75 17 3
      vertex 96.15 40 3
    endloop
  endfacet
  facet normal 0 0 1
    outer loop
      vertex 96.15 40 3
      vertex 75 17 3
      vertex 97.5 15 3
    endloop
  endfacet
  facet normal -0 0 1
    outer loop
      vertex 41.5 17 3
      vertex 97.5 15 3
      vertex 75 17 3
    endloop
  endfacet
  facet normal 0 0 1
    outer loop
      vertex 33.5 17 3
      vertex 41.5 17 3
      vertex 33.5 84 3
    endloop
  endfacet
  facet normal -0 0 1
    outer loop
      vertex 33.5 17 3
      vertex 97.5 15 3
      vertex 41.5 17 3
    endloop
  endfacet
  facet normal -0 0 1
    outer loop
      vertex 0 17 3
      vertex 97.5 15 3
      vertex 33.5 17 3
    endloop
  endfacet
  facet normal 0 0 1
    outer loop
      vertex -8 17 3
      vertex 0 17 3
      vertex -8 84 3
    endloop
  endfacet
  facet normal -0 0 1
    outer loop
      vertex -8 17 3
      vertex 97.5 15 3
      vertex 0 17 3
    endloop
  endfacet
  facet normal 0 0 1
    outer loop
      vertex -95 15 3
      vertex -8 17 3
      vertex -41.5 17 3
    endloop
  endfacet
  facet normal 0 0 1
    outer loop
      vertex -49.5 17 3
      vertex -41.5 17 3
      vertex -49.5 84 3
    endloop
  endfacet
  facet normal 0 0 1
    outer loop
      vertex -95 15 3
      vertex -41.5 17 3
      vertex -49.5 17 3
    endloop
  endfacet
  facet normal 0 0 1
    outer loop
      vertex -95 15 3
      vertex -49.5 17 3
      vertex -83 17 3
    endloop
  endfacet
  facet normal 0 0 1
    outer loop
      vertex -8 17 3
      vertex -95 15 3
      vertex 97.5 15 3
    endloop
  endfacet
  facet normal 0 0 1
    outer loop
      vertex -83 84 3
      vertex -96.15 46 3
      vertex -83 17 3
    endloop
  endfacet
  facet normal 0 0 1
    outer loop
      vertex 106.15 88 3
      vertex 100.15 46 3
      vertex 106.15 0 3
    endloop
  endfacet
  facet normal 0 0 1
    outer loop
      vertex 97.5 86 3
      vertex 106.15 88 3
      vertex 97.5 88 3
    endloop
  endfacet
  facet normal 0 0 1
    outer loop
      vertex 106.15 88 3
      vertex 97.5 86 3
      vertex 100.15 46 3
    endloop
  endfacet
  facet normal 0 0 1
    outer loop
      vertex 97.5 86 3
      vertex 96.15 46 3
      vertex 100.15 46 3
    endloop
  endfacet
  facet normal 0 0 1
    outer loop
      vertex 75 17 3
      vertex 96.15 46 3
      vertex 75 84 3
    endloop
  endfacet
  facet normal 0 0 1
    outer loop
      vertex 97.5 86 3
      vertex 75 84 3
      vertex 96.15 46 3
    endloop
  endfacet
  facet normal 0 0 1
    outer loop
      vertex 97.5 86 3
      vertex 41.5 84 3
      vertex 75 84 3
    endloop
  endfacet
  facet normal 0 0 1
    outer loop
      vertex 41.5 84 3
      vertex 33.5 84 3
      vertex 41.5 17 3
    endloop
  endfacet
  facet normal 0 0 1
    outer loop
      vertex 97.5 86 3
      vertex 33.5 84 3
      vertex 41.5 84 3
    endloop
  endfacet
  facet normal 0 0 1
    outer loop
      vertex 97.5 86 3
      vertex 0 84 3
      vertex 33.5 84 3
    endloop
  endfacet
  facet normal 0 0 1
    outer loop
      vertex 0 84 3
      vertex -8 84 3
      vertex 0 17 3
    endloop
  endfacet
  facet normal 0 0 1
    outer loop
      vertex 97.5 86 3
      vertex -8 84 3
      vertex 0 84 3
    endloop
  endfacet
  facet normal -0 0 1
    outer loop
      vertex -95 86 3
      vertex -8 84 3
      vertex 97.5 86 3
    endloop
  endfacet
  facet normal 0 0 1
    outer loop
      vertex -41.5 84 3
      vertex -49.5 84 3
      vertex -41.5 17 3
    endloop
  endfacet
  facet normal 0 0 1
    outer loop
      vertex -8 84 3
      vertex -95 86 3
      vertex -41.5 84 3
    endloop
  endfacet
  facet normal 0 0 1
    outer loop
      vertex -41.5 84 3
      vertex -95 86 3
      vertex -49.5 84 3
    endloop
  endfacet
  facet normal 0 0 1
    outer loop
      vertex -96.15 46 3
      vertex -83 84 3
      vertex -95 86 3
    endloop
  endfacet
  facet normal 0 0 1
    outer loop
      vertex -49.5 84 3
      vertex -95 86 3
      vertex -83 84 3
    endloop
  endfacet
  facet normal -0 0 1
    outer loop
      vertex 100.15 40 3
      vertex 106.15 0 3
      vertex 100.15 46 3
    endloop
  endfacet
  facet normal -0 0 1
    outer loop
      vertex 97.5 15 3
      vertex 106.15 0 3
      vertex 100.15 40 3
    endloop
  endfacet
  facet normal -0 0 1
    outer loop
      vertex 97.5 9 3
      vertex 106.15 0 3
      vertex 97.5 15 3
    endloop
  endfacet
  facet normal 0 0 1
    outer loop
      vertex 91 5.6 3
      vertex 97.5 9 3
      vertex 91 8 3
    endloop
  endfacet
  facet normal 0 0 1
    outer loop
      vertex 97.5 9 3
      vertex 91 5.6 3
      vertex 106.15 0 3
    endloop
  endfacet
  facet normal -0 0 1
    outer loop
      vertex 75 5.6 3
      vertex 106.15 0 3
      vertex 91 5.6 3
    endloop
  endfacet
  facet normal 0 0 1
    outer loop
      vertex 53 1 3
      vertex 75 5.6 3
      vertex 53 5 3
    endloop
  endfacet
  facet normal 0 0 1
    outer loop
      vertex 75 5.6 3
      vertex 53 1 3
      vertex 106.15 0 3
    endloop
  endfacet
  facet normal -0 0 1
    outer loop
      vertex 47 1 3
      vertex 106.15 0 3
      vertex 53 1 3
    endloop
  endfacet
  facet normal 0 0 1
    outer loop
      vertex 47 5 3
      vertex 8 5.6 3
      vertex 47 1 3
    endloop
  endfacet
  facet normal -0 0 1
    outer loop
      vertex -8 5.6 3
      vertex 47 1 3
      vertex 8 5.6 3
    endloop
  endfacet
  facet normal 0 0 1
    outer loop
      vertex -47 1 3
      vertex -8 5.6 3
      vertex -47 5 3
    endloop
  endfacet
  facet normal 0 0 1
    outer loop
      vertex -8 5.6 3
      vertex -47 1 3
      vertex 47 1 3
    endloop
  endfacet
  facet normal -0 0 1
    outer loop
      vertex -47 1 3
      vertex 106.15 0 3
      vertex 47 1 3
    endloop
  endfacet
  facet normal 0 0 1
    outer loop
      vertex -106.15 0 3
      vertex -47 1 3
      vertex -53 1 3
    endloop
  endfacet
  facet normal 0 0 1
    outer loop
      vertex -53 5 3
      vertex -75 5.6 3
      vertex -53 1 3
    endloop
  endfacet
  facet normal 0 0 1
    outer loop
      vertex -106.15 0 3
      vertex -75 5.6 3
      vertex -91 5.6 3
    endloop
  endfacet
  facet normal -0 0 1
    outer loop
      vertex -96.15 40 3
      vertex -83 17 3
      vertex -96.15 46 3
    endloop
  endfacet
  facet normal 0 0 1
    outer loop
      vertex -95 15 3
      vertex -95.5 15 3
      vertex -95 9 3
    endloop
  endfacet
  facet normal 0 0 1
    outer loop
      vertex -95.5 9 3
      vertex -95 9 3
      vertex -95.5 15 3
    endloop
  endfacet
  facet normal -0 0 1
    outer loop
      vertex -95.5 9 3
      vertex -91 5.6 3
      vertex -95 9 3
    endloop
  endfacet
  facet normal -0 0 1
    outer loop
      vertex -97.5 9 3
      vertex -91 5.6 3
      vertex -95.5 9 3
    endloop
  endfacet
  facet normal 0 0 1
    outer loop
      vertex -106.15 0 3
      vertex -100.15 40 3
      vertex -106.15 88 3
    endloop
  endfacet
  facet normal 0 0 1
    outer loop
      vertex -47 1 3
      vertex -106.15 0 3
      vertex 106.15 0 3
    endloop
  endfacet
  facet normal 0 0 1
    outer loop
      vertex -75 5.6 3
      vertex -106.15 0 3
      vertex -53 1 3
    endloop
  endfacet
  facet normal 0 0 1
    outer loop
      vertex -97.5 9 3
      vertex -106.15 0 3
      vertex -91 5.6 3
    endloop
  endfacet
  facet normal 0 0 1
    outer loop
      vertex -97.5 15 3
      vertex -106.15 0 3
      vertex -97.5 9 3
    endloop
  endfacet
  facet normal 0 0 1
    outer loop
      vertex 94 101 3
      vertex 91 95.4 3
      vertex 94 92 3
    endloop
  endfacet
  facet normal 0 0 1
    outer loop
      vertex 94 101 3
      vertex 75 95.4 3
      vertex 91 95.4 3
    endloop
  endfacet
  facet normal -0 0 1
    outer loop
      vertex 53 95.6 3
      vertex 75 95.4 3
      vertex 53 99.6 3
    endloop
  endfacet
  facet normal 0 0 1
    outer loop
      vertex 94 101 3
      vertex 53 99.6 3
      vertex 75 95.4 3
    endloop
  endfacet
  facet normal 0 0 1
    outer loop
      vertex 94 101 3
      vertex 47 99.6 3
      vertex 53 99.6 3
    endloop
  endfacet
  facet normal 0 0 1
    outer loop
      vertex 47 99.6 3
      vertex 8 95.4 3
      vertex 47 95.6 3
    endloop
  endfacet
  facet normal 0 0 1
    outer loop
      vertex 47 99.6 3
      vertex -8 95.4 3
      vertex 8 95.4 3
    endloop
  endfacet
  facet normal -0 0 1
    outer loop
      vertex -47 95.6 3
      vertex -8 95.4 3
      vertex -47 99.6 3
    endloop
  endfacet
  facet normal 0 0 1
    outer loop
      vertex 47 99.6 3
      vertex -47 99.6 3
      vertex -8 95.4 3
    endloop
  endfacet
  facet normal 0 0 1
    outer loop
      vertex 94 101 3
      vertex -47 99.6 3
      vertex 47 99.6 3
    endloop
  endfacet
  facet normal -0 0 1
    outer loop
      vertex -94 101 3
      vertex -47 99.6 3
      vertex 94 101 3
    endloop
  endfacet
  facet normal 0 0 1
    outer loop
      vertex -53 99.6 3
      vertex -75 95.4 3
      vertex -53 95.6 3
    endloop
  endfacet
  facet normal 0 0 1
    outer loop
      vertex -94 101 3
      vertex -75 95.4 3
      vertex -53 99.6 3
    endloop
  endfacet
  facet normal 0 0 1
    outer loop
      vertex -94 92 3
      vertex -91 95.4 3
      vertex -94 101 3
    endloop
  endfacet
  facet normal 0 0 1
    outer loop
      vertex -75 95.4 3
      vertex -94 101 3
      vertex -91 95.4 3
    endloop
  endfacet
  facet normal 0 0 1
    outer loop
      vertex -47 99.6 3
      vertex -94 101 3
      vertex -53 99.6 3
    endloop
  endfacet
  facet normal -0 0 1
    outer loop
      vertex 91 93 3
      vertex 94 92 3
      vertex 91 95.4 3
    endloop
  endfacet
  facet normal -0 0 1
    outer loop
      vertex 75 93 3
      vertex 94 92 3
      vertex 91 93 3
    endloop
  endfacet
  facet normal 0 0 1
    outer loop
      vertex 75 95.4 3
      vertex 53 95.6 3
      vertex 75 93 3
    endloop
  endfacet
  facet normal -0 0 1
    outer loop
      vertex 47 95.6 3
      vertex 75 93 3
      vertex 53 95.6 3
    endloop
  endfacet
  facet normal 0 0 1
    outer loop
      vertex 8 93 3
      vertex 47 95.6 3
      vertex 8 95.4 3
    endloop
  endfacet
  facet normal 0 0 1
    outer loop
      vertex 47 95.6 3
      vertex 8 93 3
      vertex 75 93 3
    endloop
  endfacet
  facet normal 0 0 1
    outer loop
      vertex 75 93 3
      vertex 8 93 3
      vertex 94 92 3
    endloop
  endfacet
  facet normal -0 0 1
    outer loop
      vertex -8 93 3
      vertex 94 92 3
      vertex 8 93 3
    endloop
  endfacet
  facet normal 0 0 1
    outer loop
      vertex -8 95.4 3
      vertex -47 95.6 3
      vertex -8 93 3
    endloop
  endfacet
  facet normal 0 0 1
    outer loop
      vertex -75 93 3
      vertex -47 95.6 3
      vertex -53 95.6 3
    endloop
  endfacet
  facet normal 0 0 1
    outer loop
      vertex -75 93 3
      vertex -53 95.6 3
      vertex -75 95.4 3
    endloop
  endfacet
  facet normal 0 0 1
    outer loop
      vertex -47 95.6 3
      vertex -75 93 3
      vertex -8 93 3
    endloop
  endfacet
  facet normal 0 0 1
    outer loop
      vertex -94 92 3
      vertex -8 93 3
      vertex -75 93 3
    endloop
  endfacet
  facet normal 0 0 1
    outer loop
      vertex -94 92 3
      vertex -75 93 3
      vertex -91 93 3
    endloop
  endfacet
  facet normal 0 0 1
    outer loop
      vertex -8 93 3
      vertex -94 92 3
      vertex 94 92 3
    endloop
  endfacet
  facet normal 0 0 1
    outer loop
      vertex -91 95.4 3
      vertex -94 92 3
      vertex -91 93 3
    endloop
  endfacet
  facet normal 0 0.707107 -0.707107
    outer loop
      vertex -94 100.6 0
      vertex 94 101 0.4
      vertex 94 100.6 0
    endloop
  endfacet
  facet normal 0 0.707107 -0.707107
    outer loop
      vertex 94 101 0.4
      vertex -94 100.6 0
      vertex -94 101 0.4
    endloop
  endfacet
  facet normal -1 0 0
    outer loop
      vertex -49.5 17 0
      vertex -49.5 84 3
      vertex -49.5 84 0
    endloop
  endfacet
  facet normal -1 -0 0
    outer loop
      vertex -49.5 84 3
      vertex -49.5 17 0
      vertex -49.5 17 3
    endloop
  endfacet
  facet normal 1 -0 0
    outer loop
      vertex -83 17 3
      vertex -83 84 0
      vertex -83 84 3
    endloop
  endfacet
  facet normal 1 0 0
    outer loop
      vertex -83 84 0
      vertex -83 17 3
      vertex -83 17 0
    endloop
  endfacet
  facet normal 0 -1 0
    outer loop
      vertex -83 84 0
      vertex -49.5 84 3
      vertex -83 84 3
    endloop
  endfacet
  facet normal 0 -1 -0
    outer loop
      vertex -49.5 84 3
      vertex -83 84 0
      vertex -49.5 84 0
    endloop
  endfacet
  facet normal 0 1 -0
    outer loop
      vertex -49.5 17 0
      vertex -83 17 3
      vertex -49.5 17 3
    endloop
  endfacet
  facet normal 0 1 0
    outer loop
      vertex -83 17 3
      vertex -49.5 17 0
      vertex -83 17 0
    endloop
  endfacet
  facet normal -1 0 0
    outer loop
      vertex -8 17 0
      vertex -8 84 3
      vertex -8 84 0
    endloop
  endfacet
  facet normal -1 -0 0
    outer loop
      vertex -8 84 3
      vertex -8 17 0
      vertex -8 17 3
    endloop
  endfacet
  facet normal 1 -0 0
    outer loop
      vertex -41.5 17 3
      vertex -41.5 84 0
      vertex -41.5 84 3
    endloop
  endfacet
  facet normal 1 0 0
    outer loop
      vertex -41.5 84 0
      vertex -41.5 17 3
      vertex -41.5 17 0
    endloop
  endfacet
  facet normal 0 -1 0
    outer loop
      vertex -41.5 84 0
      vertex -8 84 3
      vertex -41.5 84 3
    endloop
  endfacet
  facet normal 0 -1 -0
    outer loop
      vertex -8 84 3
      vertex -41.5 84 0
      vertex -8 84 0
    endloop
  endfacet
  facet normal 0 1 -0
    outer loop
      vertex -8 17 0
      vertex -41.5 17 3
      vertex -8 17 3
    endloop
  endfacet
  facet normal 0 1 0
    outer loop
      vertex -41.5 17 3
      vertex -8 17 0
      vertex -41.5 17 0
    endloop
  endfacet
  facet normal -1 0 0
    outer loop
      vertex 33.5 17 0
      vertex 33.5 84 3
      vertex 33.5 84 0
    endloop
  endfacet
  facet normal -1 -0 0
    outer loop
      vertex 33.5 84 3
      vertex 33.5 17 0
      vertex 33.5 17 3
    endloop
  endfacet
  facet normal 1 -0 0
    outer loop
      vertex 0 17 3
      vertex 0 84 0
      vertex 0 84 3
    endloop
  endfacet
  facet normal 1 0 0
    outer loop
      vertex 0 84 0
      vertex 0 17 3
      vertex 0 17 0
    endloop
  endfacet
  facet normal 0 -1 0
    outer loop
      vertex 0 84 0
      vertex 33.5 84 3
      vertex 0 84 3
    endloop
  endfacet
  facet normal 0 -1 -0
    outer loop
      vertex 33.5 84 3
      vertex 0 84 0
      vertex 33.5 84 0
    endloop
  endfacet
  facet normal 0 1 -0
    outer loop
      vertex 33.5 17 0
      vertex 0 17 3
      vertex 33.5 17 3
    endloop
  endfacet
  facet normal 0 1 0
    outer loop
      vertex 0 17 3
      vertex 33.5 17 0
      vertex 0 17 0
    endloop
  endfacet
  facet normal -1 0 0
    outer loop
      vertex 75 17 0
      vertex 75 84 3
      vertex 75 84 0
    endloop
  endfacet
  facet normal -1 -0 0
    outer loop
      vertex 75 84 3
      vertex 75 17 0
      vertex 75 17 3
    endloop
  endfacet
  facet normal 1 -0 0
    outer loop
      vertex 41.5 17 3
      vertex 41.5 84 0
      vertex 41.5 84 3
    endloop
  endfacet
  facet normal 1 0 0
    outer loop
      vertex 41.5 84 0
      vertex 41.5 17 3
      vertex 41.5 17 0
    endloop
  endfacet
  facet normal 0 -1 0
    outer loop
      vertex 41.5 84 0
      vertex 75 84 3
      vertex 41.5 84 3
    endloop
  endfacet
  facet normal 0 -1 -0
    outer loop
      vertex 75 84 3
      vertex 41.5 84 0
      vertex 75 84 0
    endloop
  endfacet
  facet normal 0 1 -0
    outer loop
      vertex 75 17 0
      vertex 41.5 17 3
      vertex 75 17 3
    endloop
  endfacet
  facet normal 0 1 0
    outer loop
      vertex 41.5 17 3
      vertex 75 17 0
      vertex 41.5 17 0
    endloop
  endfacet
  facet normal -1 0 0
    outer loop
      vertex -47 1 0
      vertex -47 5 3
      vertex -47 5 0
    endloop
  endfacet
  facet normal -1 -0 0
    outer loop
      vertex -47 5 3
      vertex -47 1 0
      vertex -47 1 3
    endloop
  endfacet
  facet normal 1 -0 0
    outer loop
      vertex -53 1 3
      vertex -53 5 0
      vertex -53 5 3
    endloop
  endfacet
  facet normal 1 0 0
    outer loop
      vertex -53 5 0
      vertex -53 1 3
      vertex -53 1 0
    endloop
  endfacet
  facet normal 0 -1 0
    outer loop
      vertex -53 5 0
      vertex -47 5 3
      vertex -53 5 3
    endloop
  endfacet
  facet normal 0 -1 -0
    outer loop
      vertex -47 5 3
      vertex -53 5 0
      vertex -47 5 0
    endloop
  endfacet
  facet normal 0 1 -0
    outer loop
      vertex -47 1 0
      vertex -53 1 3
      vertex -47 1 3
    endloop
  endfacet
  facet normal 0 1 0
    outer loop
      vertex -53 1 3
      vertex -47 1 0
      vertex -53 1 0
    endloop
  endfacet
  facet normal -1 0 0
    outer loop
      vertex -47 95.6 0
      vertex -47 99.6 3
      vertex -47 99.6 0
    endloop
  endfacet
  facet normal -1 -0 0
    outer loop
      vertex -47 99.6 3
      vertex -47 95.6 0
      vertex -47 95.6 3
    endloop
  endfacet
  facet normal 1 -0 0
    outer loop
      vertex -53 95.6 3
      vertex -53 99.6 0
      vertex -53 99.6 3
    endloop
  endfacet
  facet normal 1 0 0
    outer loop
      vertex -53 99.6 0
      vertex -53 95.6 3
      vertex -53 95.6 0
    endloop
  endfacet
  facet normal 0 -1 0
    outer loop
      vertex -53 99.6 0
      vertex -47 99.6 3
      vertex -53 99.6 3
    endloop
  endfacet
  facet normal 0 -1 -0
    outer loop
      vertex -47 99.6 3
      vertex -53 99.6 0
      vertex -47 99.6 0
    endloop
  endfacet
  facet normal 0 1 -0
    outer loop
      vertex -47 95.6 0
      vertex -53 95.6 3
      vertex -47 95.6 3
    endloop
  endfacet
  facet normal 0 1 0
    outer loop
      vertex -53 95.6 3
      vertex -47 95.6 0
      vertex -53 95.6 0
    endloop
  endfacet
  facet normal -1 0 0
    outer loop
      vertex 53 1 0
      vertex 53 5 3
      vertex 53 5 0
    endloop
  endfacet
  facet normal -1 -0 0
    outer loop
      vertex 53 5 3
      vertex 53 1 0
      vertex 53 1 3
    endloop
  endfacet
  facet normal 1 -0 0
    outer loop
      vertex 47 1 3
      vertex 47 5 0
      vertex 47 5 3
    endloop
  endfacet
  facet normal 1 0 0
    outer loop
      vertex 47 5 0
      vertex 47 1 3
      vertex 47 1 0
    endloop
  endfacet
  facet normal 0 -1 0
    outer loop
      vertex 47 5 0
      vertex 53 5 3
      vertex 47 5 3
    endloop
  endfacet
  facet normal 0 -1 -0
    outer loop
      vertex 53 5 3
      vertex 47 5 0
      vertex 53 5 0
    endloop
  endfacet
  facet normal 0 1 -0
    outer loop
      vertex 53 1 0
      vertex 47 1 3
      vertex 53 1 3
    endloop
  endfacet
  facet normal 0 1 0
    outer loop
      vertex 47 1 3
      vertex 53 1 0
      vertex 47 1 0
    endloop
  endfacet
  facet normal -1 0 0
    outer loop
      vertex 53 95.6 0
      vertex 53 99.6 3
      vertex 53 99.6 0
    endloop
  endfacet
  facet normal -1 -0 0
    outer loop
      vertex 53 99.6 3
      vertex 53 95.6 0
      vertex 53 95.6 3
    endloop
  endfacet
  facet normal 1 -0 0
    outer loop
      vertex 47 95.6 3
      vertex 47 99.6 0
      vertex 47 99.6 3
    endloop
  endfacet
  facet normal 1 0 0
    outer loop
      vertex 47 99.6 0
      vertex 47 95.6 3
      vertex 47 95.6 0
    endloop
  endfacet
  facet normal 0 -1 0
    outer loop
      vertex 47 99.6 0
      vertex 53 99.6 3
      vertex 47 99.6 3
    endloop
  endfacet
  facet normal 0 -1 -0
    outer loop
      vertex 53 99.6 3
      vertex 47 99.6 0
      vertex 53 99.6 0
    endloop
  endfacet
  facet normal 0 1 -0
    outer loop
      vertex 53 95.6 0
      vertex 47 95.6 3
      vertex 53 95.6 3
    endloop
  endfacet
  facet normal 0 1 0
    outer loop
      vertex 47 95.6 3
      vertex 53 95.6 0
      vertex 47 95.6 0
    endloop
  endfacet
  facet normal -1 0 0
    outer loop
      vertex -96.15 40 0
      vertex -96.15 46 3
      vertex -96.15 46 0
    endloop
  endfacet
  facet normal -1 -0 0
    outer loop
      vertex -96.15 46 3
      vertex -96.15 40 0
      vertex -96.15 40 3
    endloop
  endfacet
  facet normal 1 -0 0
    outer loop
      vertex -100.15 40 3
      vertex -100.15 46 0
      vertex -100.15 46 3
    endloop
  endfacet
  facet normal 1 0 0
    outer loop
      vertex -100.15 46 0
      vertex -100.15 40 3
      vertex -100.15 40 0
    endloop
  endfacet
  facet normal 0 -1 0
    outer loop
      vertex -100.15 46 0
      vertex -96.15 46 3
      vertex -100.15 46 3
    endloop
  endfacet
  facet normal 0 -1 -0
    outer loop
      vertex -96.15 46 3
      vertex -100.15 46 0
      vertex -96.15 46 0
    endloop
  endfacet
  facet normal 0 1 -0
    outer loop
      vertex -96.15 40 0
      vertex -100.15 40 3
      vertex -96.15 40 3
    endloop
  endfacet
  facet normal 0 1 0
    outer loop
      vertex -100.15 40 3
      vertex -96.15 40 0
      vertex -100.15 40 0
    endloop
  endfacet
  facet normal -1 0 0
    outer loop
      vertex 100.15 40 0
      vertex 100.15 46 3
      vertex 100.15 46 0
    endloop
  endfacet
  facet normal -1 -0 0
    outer loop
      vertex 100.15 46 3
      vertex 100.15 40 0
      vertex 100.15 40 3
    endloop
  endfacet
  facet normal 1 -0 0
    outer loop
      vertex 96.15 40 3
      vertex 96.15 46 0
      vertex 96.15 46 3
    endloop
  endfacet
  facet normal 1 0 0
    outer loop
      vertex 96.15 46 0
      vertex 96.15 40 3
      vertex 96.15 40 0
    endloop
  endfacet
  facet normal 0 -1 0
    outer loop
      vertex 96.15 46 0
      vertex 100.15 46 3
      vertex 96.15 46 3
    endloop
  endfacet
  facet normal 0 -1 -0
    outer loop
      vertex 100.15 46 3
      vertex 96.15 46 0
      vertex 100.15 46 0
    endloop
  endfacet
  facet normal 0 1 -0
    outer loop
      vertex 100.15 40 0
      vertex 96.15 40 3
      vertex 100.15 40 3
    endloop
  endfacet
  facet normal 0 1 0
    outer loop
      vertex 96.15 40 3
      vertex 100.15 40 0
      vertex 96.15 40 0
    endloop
  endfacet
  facet normal -1 0 0
    outer loop
      vertex -94 100.6 0
      vertex -94 101 3
      vertex -94 101 0.4
    endloop
  endfacet
  facet normal -1 0 0
    outer loop
      vertex -94 100.6 0
      vertex -94 92 3
      vertex -94 101 3
    endloop
  endfacet
  facet normal -1 0 0
    outer loop
      vertex -94 88 0
      vertex -94 92 3
      vertex -94 100.6 0
    endloop
  endfacet
  facet normal -1 0 0
    outer loop
      vertex -94 88 8
      vertex -94 92 3
      vertex -94 88 0
    endloop
  endfacet
  facet normal -1 0 0
    outer loop
      vertex -94 92 3
      vertex -94 88 8
      vertex -94 92 8
    endloop
  endfacet
  facet normal 0 1 0
    outer loop
      vertex -94 88 8
      vertex -95 88 3
      vertex -95 88 8
    endloop
  endfacet
  facet normal 0 1 0
    outer loop
      vertex -94 88 0
      vertex -95.5 88 3
      vertex -95 88 3
    endloop
  endfacet
  facet normal 0 1 0
    outer loop
      vertex -95.5 88 3
      vertex -94 88 0
      vertex -97.5 88 3
    endloop
  endfacet
  facet normal 0 1 0
    outer loop
      vertex -97.5 88 3
      vertex -94 88 0
      vertex -106.15 88 3
    endloop
  endfacet
  facet normal 0 1 -0
    outer loop
      vertex -94 88 0
      vertex -95 88 3
      vertex -94 88 8
    endloop
  endfacet
  facet normal 0 1 -0
    outer loop
      vertex -95.5 88 3
      vertex -97.5 88 11
      vertex -95.5 88 11
    endloop
  endfacet
  facet normal 0 1 0
    outer loop
      vertex -97.5 88 11
      vertex -95.5 88 3
      vertex -97.5 88 3
    endloop
  endfacet
  facet normal 0 1 0
    outer loop
      vertex -106.15 88 10
      vertex -110.15 88 7.55
      vertex -110.15 88 10
    endloop
  endfacet
  facet normal 0 1 -0
    outer loop
      vertex -106.15 88 3
      vertex -110.15 88 7.55
      vertex -106.15 88 10
    endloop
  endfacet
  facet normal 0 1 0
    outer loop
      vertex -111.65 88 0
      vertex -110.15 88 7.55
      vertex -106.15 88 3
    endloop
  endfacet
  facet normal 0 1 0
    outer loop
      vertex -110.15 88 7.55
      vertex -111.65 88 0
      vertex -119.2 88 7.55
    endloop
  endfacet
  facet normal 0 1 0
    outer loop
      vertex -111.65 88 0
      vertex -106.15 88 3
      vertex -94 88 0
    endloop
  endfacet
  facet normal 1 0 0
    outer loop
      vertex 94 92 8
      vertex 94 88 8
      vertex 94 92 3
    endloop
  endfacet
  facet normal 1 0 0
    outer loop
      vertex 94 101 3
      vertex 94 100.6 0
      vertex 94 101 0.4
    endloop
  endfacet
  facet normal 1 -0 0
    outer loop
      vertex 94 92 3
      vertex 94 100.6 0
      vertex 94 101 3
    endloop
  endfacet
  facet normal 1 0 0
    outer loop
      vertex 94 92 3
      vertex 94 88 0
      vertex 94 100.6 0
    endloop
  endfacet
  facet normal 1 0 0
    outer loop
      vertex 94 88 0
      vertex 94 92 3
      vertex 94 88 8
    endloop
  endfacet
  facet normal 0 1 -0
    outer loop
      vertex 111.65 88 0
      vertex 110.15 88 7.55
      vertex 119.2 88 7.55
    endloop
  endfacet
  facet normal 0 1 0
    outer loop
      vertex 94 88 0
      vertex 106.15 88 3
      vertex 111.65 88 0
    endloop
  endfacet
  facet normal 0 1 0
    outer loop
      vertex 110.15 88 7.55
      vertex 111.65 88 0
      vertex 106.15 88 3
    endloop
  endfacet
  facet normal 0 1 -0
    outer loop
      vertex 110.15 88 7.55
      vertex 106.15 88 10
      vertex 110.15 88 10
    endloop
  endfacet
  facet normal 0 1 0
    outer loop
      vertex 106.15 88 10
      vertex 110.15 88 7.55
      vertex 106.15 88 3
    endloop
  endfacet
  facet normal 0 1 0
    outer loop
      vertex 97.5 88 11
      vertex 95.5 88 8
      vertex 95.5 88 11
    endloop
  endfacet
  facet normal 0 1 -0
    outer loop
      vertex 97.5 88 3
      vertex 95.5 88 8
      vertex 97.5 88 11
    endloop
  endfacet
  facet normal 0 1 0
    outer loop
      vertex 97.5 88 3
      vertex 94 88 8
      vertex 95.5 88 8
    endloop
  endfacet
  facet normal 0 1 0
    outer loop
      vertex 97.5 88 3
      vertex 94 88 0
      vertex 94 88 8
    endloop
  endfacet
  facet normal 0 1 0
    outer loop
      vertex 106.15 88 3
      vertex 94 88 0
      vertex 97.5 88 3
    endloop
  endfacet
endsolid OpenSCAD_Model
